<svg width="101" height="39" viewBox="0 0 101 39" fill="none" xmlns="http://www.w3.org/2000/svg">
<path d="M70.3589 25.6076C70.4008 25.6076 70.4343 25.574 70.4343 25.5321V7.37585C70.4343 6.81752 69.9817 6.36414 69.4244 6.36414H66.6293C66.072 6.36414 65.6194 6.81752 65.6194 7.37585V25.5321C65.6194 25.574 65.6529 25.6076 65.6948 25.6076H70.3589Z" fill="white"/>
<path d="M61.6426 13.6854H62.3885C62.6777 13.6854 62.7531 13.6098 62.7531 13.3202V9.78966C62.7531 9.5 62.6777 9.42444 62.3885 9.42444H61.4498C59.2079 9.42444 57.4269 10.1171 56.1572 11.4856C54.8791 12.8626 54.2338 14.8398 54.2338 17.3586V28.3027C54.2338 28.5966 54.305 28.6679 54.5983 28.6679H58.4369C58.726 28.6679 58.8014 28.5924 58.8014 28.3027V16.6156C58.8014 15.7214 59.0571 15.0035 59.5641 14.4788C60.0712 13.954 60.771 13.6854 61.6426 13.6854Z" fill="white"/>
<path d="M100.003 12.3546C99.4704 11.4311 98.7329 10.7048 97.8152 10.1969C96.8891 9.68471 95.8373 9.42444 94.6891 9.42444C92.7991 9.42444 91.257 9.98697 90.1046 11.091C88.9522 12.1951 88.3446 13.7022 88.2943 15.5661V22.774C88.2943 24.6924 88.86 26.2499 89.9789 27.4043C91.1062 28.5714 92.5477 29.1381 94.3748 29.1381C96.1138 29.1381 97.5596 28.6259 98.6742 27.6184C99.7889 26.6109 100.426 25.2592 100.573 23.5968C100.589 23.4457 100.564 23.3617 100.539 23.3365C100.51 23.3029 100.417 23.2693 100.246 23.2693H96.3695C96.1976 23.2693 96.0384 23.3029 95.9588 23.6807L95.942 23.7395C95.5984 24.6799 94.9405 24.8772 94.4502 24.8772C93.9557 24.8772 93.566 24.7092 93.2852 24.3734C93.0254 24.0628 92.8955 23.643 92.8955 23.1266V21.3341H94.6471C96.4868 21.3341 97.9912 20.7967 99.1184 19.7388C100.254 18.6768 100.807 17.3082 100.807 15.5535C100.811 14.3571 100.539 13.2824 100.003 12.3546ZM94.6513 17.43H92.8997V15.4401C92.8997 14.9154 93.0422 14.4914 93.3188 14.1807C93.6079 13.8533 94.0186 13.6854 94.534 13.6854C95.1584 13.6854 96.206 13.9457 96.206 15.6752C96.206 16.7919 95.6403 17.43 94.6513 17.43Z" fill="white"/>
<path d="M84.1457 27.5638C85.2939 26.5144 85.8512 25.1668 85.8512 23.4414C85.8512 22.329 85.604 21.3886 85.1179 20.654C84.615 19.8942 84.0326 19.298 83.3788 18.8741C82.6958 18.4291 81.8032 17.9589 80.7304 17.4719C79.8127 17.0647 79.1464 16.7205 78.7064 16.414C78.0401 15.9565 77.8976 15.3981 77.8976 15.0077C77.8976 14.6047 78.0401 14.2605 78.3041 14.0128C78.5681 13.7693 78.9243 13.6434 79.3727 13.6434C80.127 13.6434 80.655 14.0128 80.8687 14.6803C80.986 15.1337 81.1788 15.1337 81.292 15.1337H85.1305C85.2981 15.1337 85.3693 15.1043 85.3861 15.0917C85.428 15.0119 85.4531 14.886 85.4531 14.7265C85.428 13.9708 85.2059 13.1648 84.7952 12.3462C84.3888 11.5444 83.7225 10.8475 82.8131 10.2766C81.9038 9.70569 80.7472 9.42023 79.3727 9.42023C77.5791 9.42023 76.0957 9.91559 74.9684 10.8895C73.8412 11.8592 73.2922 13.1564 73.2922 14.8482C73.2922 15.9355 73.5311 16.8548 74.0046 17.5769C74.4907 18.3199 75.0648 18.9034 75.7186 19.3148C76.41 19.7514 77.29 20.2174 78.3334 20.7002C79.2763 21.1326 79.9552 21.4978 80.4119 21.8168C81.095 22.2954 81.2375 22.8537 81.2375 23.2399C81.2375 23.6975 81.0699 24.0921 80.7346 24.407C80.4078 24.7176 79.9887 24.8771 79.4858 24.8771C78.7944 24.8771 78.4214 24.5707 78.2287 24.3188C77.9982 24.0124 77.818 23.6094 77.6713 23.0804C77.5791 22.7488 77.4283 22.6816 77.2146 22.6816H73.3761C73.1875 22.6816 73.133 22.7236 73.133 22.7236C73.0995 22.7908 73.0492 22.9335 73.0492 23.2064C73.0743 24.1425 73.3383 25.087 73.8412 26.0064C74.3357 26.9174 75.09 27.673 76.0747 28.2607C77.0595 28.8484 78.258 29.1423 79.6409 29.1423C81.4931 29.1423 83.0059 28.6091 84.1457 27.5638Z" fill="white"/>
<path d="M30.9051 28.6721H34.664C34.9531 28.6721 35.0285 28.5966 35.0285 28.3069V15.7928C35.0285 13.8743 34.4754 12.3126 33.3817 11.1582C32.2795 9.99116 30.8548 9.42444 29.0277 9.42444C27.6951 9.42444 26.5218 9.82744 25.5328 10.6251L25.2688 10.835L25.0048 10.6251C24.0158 9.82744 22.8383 9.42444 21.5099 9.42444C19.6828 9.42444 18.2581 9.99116 17.1559 11.1582C16.058 12.3126 15.5049 13.8743 15.5049 15.7928V28.3069C15.5049 28.6008 15.5761 28.6721 15.8695 28.6721H19.6284C19.9175 28.6721 19.9929 28.5966 19.9929 28.3069V15.4401C19.9929 14.9238 20.1228 14.504 20.3827 14.1891C20.655 13.8617 21.0448 13.6854 21.5057 13.6854C21.9667 13.6854 22.3564 13.8617 22.6288 14.1891C22.8886 14.4998 23.0185 14.9196 23.0185 15.4359V28.3027C23.0185 28.5966 23.0897 28.6679 23.3831 28.6679H27.142C27.4311 28.6679 27.5065 28.5924 27.5065 28.3027V15.4401C27.5065 14.9238 27.6364 14.504 27.8963 14.1891C28.1686 13.8575 28.5584 13.6854 29.0193 13.6854C29.4803 13.6854 29.87 13.8617 30.1466 14.1891C30.4064 14.4998 30.5363 14.9196 30.5363 15.4359V28.3027C30.5405 28.6008 30.6117 28.6721 30.9051 28.6721Z" fill="white"/>
<path d="M9.52087 10.1969C8.59476 9.68471 7.54294 9.42444 6.39474 9.42444C4.50481 9.42444 2.9627 9.98697 1.81031 11.091C0.657912 12.1993 0.0502863 13.7064 0 15.5703V22.7782C0 24.6966 0.565721 26.2541 1.68459 27.4085C2.81184 28.5756 4.24919 29.1423 6.08045 29.1423C7.81952 29.1423 9.26525 28.6301 10.3799 27.6226C11.4946 26.6151 12.1316 25.2634 12.2782 23.601C12.295 23.4498 12.2699 23.3659 12.2447 23.3407C12.2154 23.3071 12.1232 23.2735 11.9514 23.2735H8.07514C7.90333 23.2735 7.74409 23.3071 7.66447 23.6849L7.64771 23.7437C7.30408 24.684 6.64617 24.8814 6.15588 24.8814C5.6614 24.8814 5.27168 24.7134 4.99091 24.3776C4.7311 24.0669 4.60119 23.6472 4.60119 23.1266V21.3341H6.35283C8.19247 21.3341 9.69687 20.7967 10.8241 19.7388C11.9598 18.6768 12.5129 17.3082 12.5129 15.5535C12.5129 14.3529 12.2405 13.2782 11.7083 12.3504C11.1761 11.4311 10.4386 10.7048 9.52087 10.1969ZM6.35283 17.43H4.60119V15.4401C4.60119 14.9154 4.74367 14.4914 5.02025 14.1807C5.30939 13.8533 5.72006 13.6854 6.2355 13.6854C6.85989 13.6854 7.90752 13.9457 7.90752 15.6752C7.91171 16.7919 7.3418 17.43 6.35283 17.43Z" fill="white"/>
<path d="M45.6265 29.1423C46.5819 29.1423 47.4745 28.8736 48.2749 28.3489C49.0837 27.8157 49.7416 27.0643 50.2277 26.1156C50.718 25.1584 50.9652 24.0376 50.9652 22.7782V15.7928C50.9652 13.8785 50.3869 12.321 49.2471 11.1666C48.1073 10.0122 46.5735 9.42865 44.6878 9.42865C42.8021 9.42865 41.2683 10.0122 40.1285 11.1666C38.9887 12.321 38.4104 13.8785 38.4104 15.7928V36.1487C38.4104 36.4384 38.4858 36.5139 38.775 36.5139H42.6512C42.9404 36.5139 43.0158 36.4384 43.0158 36.1487V28.3741L43.6234 28.6763C44.2394 28.9828 44.9141 29.1423 45.6265 29.1423ZM43.0158 23.1266V15.4401C43.0158 14.9112 43.1666 14.4872 43.4642 14.1724C43.7659 13.8491 44.1766 13.6896 44.6878 13.6896C45.199 13.6896 45.6097 13.8533 45.9114 14.1765C46.209 14.4914 46.3598 14.9196 46.3598 15.4443V23.1308C46.3598 23.6556 46.209 24.0838 45.9114 24.3986C45.6097 24.7218 45.1949 24.8856 44.6878 24.8856C44.1766 24.8856 43.7659 24.7218 43.4642 24.3986C43.1666 24.0838 43.0158 23.6556 43.0158 23.1266Z" fill="white"/>
<path d="M66.2773 4.23575C65.8247 3.76558 65.5942 3.17786 65.5942 2.4726C65.5942 1.77154 65.8205 1.18383 66.2773 0.709457C66.7299 0.239284 67.3165 0 68.0289 0C68.7204 0 69.2987 0.235086 69.7638 0.709457C70.229 1.18383 70.4594 1.76734 70.4594 2.4726C70.4594 3.13168 70.2206 3.70681 69.747 4.20217C69.2693 4.69753 68.6994 4.94101 68.0289 4.94101C67.3124 4.94101 66.7299 4.70592 66.2773 4.23575Z" fill="#F78F2C"/>
<path d="M45.7856 34.776C45.7856 33.567 46.7411 32.6392 47.9186 32.6392C49.0962 32.6392 50.0516 33.567 50.0516 34.776C50.0516 35.985 49.0962 36.9128 47.9186 36.9128C46.7411 36.9128 45.7856 35.985 45.7856 34.776ZM49.1129 34.776C49.1129 34.0413 48.5849 33.5544 47.9186 33.5544C47.2523 33.5544 46.7243 34.0413 46.7243 34.776C46.7243 35.5106 47.2523 35.9976 47.9186 35.9976C48.5849 35.9976 49.1129 35.5106 49.1129 34.776Z" fill="white"/>
<path d="M53.404 34.9733V36.686C53.404 36.7784 53.3495 36.833 53.2573 36.833H52.6707C52.5785 36.833 52.524 36.7784 52.524 36.686V35.0488C52.524 34.755 52.3522 34.6248 52.1301 34.6248C51.8661 34.6248 51.7026 34.7718 51.7026 35.116V36.6818C51.7026 36.7742 51.6482 36.8288 51.556 36.8288H50.9693C50.8771 36.8288 50.8226 36.7742 50.8226 36.6818V34.0413C50.8226 33.949 50.8771 33.8944 50.9693 33.8944H51.556C51.6482 33.8944 51.7026 33.949 51.7026 34.0413V34.1631C51.8409 33.9574 52.0882 33.8146 52.4653 33.8146C53.0101 33.8146 53.404 34.2386 53.404 34.9733Z" fill="white"/>
<path d="M59.145 35.3637C59.145 36.2369 58.5123 36.9128 57.7454 36.9128C57.3515 36.9128 57.0666 36.7784 56.8738 36.5559V36.6819C56.8738 36.7742 56.8193 36.8288 56.7271 36.8288H56.1404C56.0483 36.8288 55.9938 36.7742 55.9938 36.6819V32.8701C55.9938 32.7778 56.0483 32.7232 56.1404 32.7232H56.7271C56.8193 32.7232 56.8738 32.7778 56.8738 32.8701V34.1715C57.0707 33.949 57.3557 33.8147 57.7454 33.8147C58.5123 33.8147 59.145 34.4906 59.145 35.3637ZM58.2692 35.3637C58.2692 34.9229 57.9759 34.6459 57.5736 34.6459C57.1713 34.6459 56.878 34.9229 56.878 35.3637C56.878 35.8045 57.1713 36.0816 57.5736 36.0816C57.9759 36.0816 58.2692 35.8045 58.2692 35.3637Z" fill="white"/>
<path d="M61.563 33.991V34.6836C61.563 34.776 61.5211 34.8264 61.4456 34.8264C61.1188 34.8138 60.8003 34.9775 60.8003 35.4477V36.6861C60.8003 36.7784 60.7458 36.833 60.6536 36.833H60.067C59.9748 36.833 59.9203 36.7784 59.9203 36.6861V34.0455C59.9203 33.9532 59.9748 33.8986 60.067 33.8986H60.6536C60.7458 33.8986 60.8003 33.949 60.8003 34.0455V34.3646C60.8883 34.0707 61.1188 33.8986 61.4079 33.8524C61.5127 33.8314 61.563 33.8986 61.563 33.991Z" fill="white"/>
<path d="M64.5969 34.9817V36.6818C64.5969 36.7742 64.5425 36.8288 64.4503 36.8288H63.8888C63.7966 36.8288 63.7421 36.7742 63.7421 36.6818V36.5979C63.587 36.7826 63.3566 36.9085 62.9878 36.9085C62.4724 36.9085 62.0198 36.6021 62.0198 35.9934C62.0198 35.3847 62.4724 35.0782 62.9878 35.0782C63.3566 35.0782 63.587 35.1832 63.7421 35.3007V35.0362C63.7421 34.7466 63.6247 34.6206 63.3775 34.6206C63.1973 34.6206 63.0842 34.692 63.0381 34.7928C63.0045 34.8767 62.9752 34.9229 62.8872 34.9229H62.3131C62.2209 34.9229 62.1623 34.8725 62.1664 34.7718C62.2419 34.1379 62.7825 33.8146 63.3775 33.8146C64.0228 33.8146 64.5969 34.1925 64.5969 34.9817ZM63.7421 35.9976C63.7421 35.8171 63.5828 35.7037 63.2979 35.7037C63.0297 35.7037 62.8998 35.8255 62.8998 35.9976C62.8998 36.1697 63.0297 36.2914 63.2979 36.2914C63.5828 36.2914 63.7421 36.1697 63.7421 35.9976Z" fill="white"/>
<path d="M68.0206 34.9733V36.686C68.0206 36.7784 67.9661 36.833 67.8739 36.833H67.2872C67.195 36.833 67.1406 36.7784 67.1406 36.686V35.0488C67.1406 34.755 66.9687 34.6248 66.7467 34.6248C66.4826 34.6248 66.3192 34.7718 66.3192 35.116V36.6818C66.3192 36.7742 66.2647 36.8288 66.1726 36.8288H65.5859C65.4937 36.8288 65.4392 36.7742 65.4392 36.6818V34.0413C65.4392 33.949 65.4937 33.8944 65.5859 33.8944H66.1726C66.2647 33.8944 66.3192 33.949 66.3192 34.0413V34.1631C66.4575 33.9574 66.7047 33.8146 67.0819 33.8146C67.6309 33.8146 68.0206 34.2386 68.0206 34.9733Z" fill="white"/>
<path d="M71.8759 32.8701V36.6819C71.8759 36.7742 71.8214 36.8288 71.7292 36.8288H71.1425C71.0504 36.8288 70.9959 36.7742 70.9959 36.6819V36.5559C70.7989 36.7784 70.514 36.9128 70.1242 36.9128C69.3574 36.9128 68.7246 36.2369 68.7246 35.3637C68.7246 34.4906 69.3574 33.8147 70.1242 33.8147C70.5182 33.8147 70.8031 33.949 70.9959 34.1715V32.8701C70.9959 32.7778 71.0462 32.7232 71.1425 32.7232H71.7292C71.8214 32.7232 71.8759 32.7778 71.8759 32.8701ZM70.9959 35.3637C70.9959 34.9229 70.7025 34.6459 70.3002 34.6459C69.898 34.6459 69.6046 34.9229 69.6046 35.3637C69.6046 35.8045 69.898 36.0816 70.3002 36.0816C70.7025 36.0816 70.9959 35.8045 70.9959 35.3637Z" fill="white"/>
<path d="M72.8271 36.6861V36.0396C72.8271 35.9472 72.8816 35.8926 72.9738 35.8926H73.6192C73.7113 35.8926 73.7658 35.9472 73.7658 36.0396V36.6861C73.7658 36.7784 73.7113 36.833 73.6192 36.833H72.9738C72.8816 36.833 72.8271 36.7784 72.8271 36.6861Z" fill="white"/>
<path d="M76.3177 34.776C76.3177 33.567 77.2732 32.6392 78.4507 32.6392C79.6283 32.6392 80.5837 33.567 80.5837 34.776C80.5837 35.985 79.6283 36.9128 78.4507 36.9128C77.2732 36.9128 76.3177 35.985 76.3177 34.776ZM79.645 34.776C79.645 34.0413 79.117 33.5544 78.4507 33.5544C77.7844 33.5544 77.2564 34.0413 77.2564 34.776C77.2564 35.5106 77.7844 35.9976 78.4507 35.9976C79.117 35.9976 79.645 35.5106 79.645 34.776Z" fill="white"/>
<path d="M83.9362 34.9733V36.686C83.9362 36.7784 83.8817 36.833 83.7896 36.833H83.2029C83.1107 36.833 83.0562 36.7784 83.0562 36.686V35.0488C83.0562 34.755 82.8844 34.6248 82.6623 34.6248C82.3983 34.6248 82.2349 34.7718 82.2349 35.116V36.6818C82.2349 36.7742 82.1804 36.8288 82.0882 36.8288H81.5015C81.4093 36.8288 81.3549 36.7742 81.3549 36.6818V34.0413C81.3549 33.949 81.4093 33.8944 81.5015 33.8944H82.0882C82.1804 33.8944 82.2349 33.949 82.2349 34.0413V34.1631C82.3732 33.9574 82.6204 33.8146 82.9975 33.8146C83.5423 33.8146 83.9362 34.2386 83.9362 34.9733Z" fill="white"/>
<path d="M89.6772 35.3637C89.6772 36.2369 89.0444 36.9127 88.2775 36.9127C87.8836 36.9127 87.5987 36.7784 87.4059 36.5559V37.8573C87.4059 37.9496 87.3514 38.0042 87.2592 38.0042H86.6725C86.5804 38.0042 86.5259 37.9538 86.5259 37.8573V34.0455C86.5259 33.9532 86.5804 33.8986 86.6725 33.8986H87.2592C87.3514 33.8986 87.4059 33.9532 87.4059 34.0455V34.1715C87.6028 33.949 87.8878 33.8146 88.2775 33.8146C89.0444 33.8146 89.6772 34.4905 89.6772 35.3637ZM88.8013 35.3637C88.8013 34.9229 88.508 34.6458 88.1057 34.6458C87.7034 34.6458 87.4101 34.9229 87.4101 35.3637C87.4101 35.8045 87.7034 36.0815 88.1057 36.0815C88.508 36.0815 88.8013 35.8045 88.8013 35.3637Z" fill="white"/>
<path d="M90.3099 35.3637C90.3099 34.4905 91.0014 33.8146 91.8604 33.8146C92.7195 33.8146 93.4109 34.4905 93.4109 35.3637C93.4109 36.2369 92.7195 36.9127 91.8604 36.9127C91.0014 36.9127 90.3099 36.2369 90.3099 35.3637ZM92.5351 35.3637C92.5351 34.9481 92.2418 34.671 91.8604 34.671C91.4791 34.671 91.1858 34.9481 91.1858 35.3637C91.1858 35.7793 91.4791 36.0563 91.8604 36.0563C92.2418 36.0563 92.5351 35.7793 92.5351 35.3637Z" fill="white"/>
<path d="M94.1904 33.3991V32.8701C94.1904 32.7778 94.2449 32.7232 94.3371 32.7232H94.9238C95.016 32.7232 95.0704 32.7778 95.0704 32.8701V33.3991C95.0704 33.4914 95.016 33.546 94.9238 33.546H94.3371C94.2449 33.546 94.1904 33.4914 94.1904 33.3991ZM94.1904 36.6861V34.0456C94.1904 33.9532 94.2449 33.8986 94.3371 33.8986H94.9238C95.016 33.8986 95.0704 33.9532 95.0704 34.0456V36.6861C95.0704 36.7784 95.016 36.833 94.9238 36.833H94.3371C94.2449 36.833 94.1904 36.7784 94.1904 36.6861Z" fill="white"/>
<path d="M98.5695 34.9733V36.686C98.5695 36.7784 98.515 36.833 98.4229 36.833H97.8362C97.744 36.833 97.6895 36.7784 97.6895 36.686V35.0488C97.6895 34.755 97.5177 34.6248 97.2956 34.6248C97.0316 34.6248 96.8682 34.7718 96.8682 35.116V36.6818C96.8682 36.7742 96.8137 36.8288 96.7215 36.8288H96.1348C96.0426 36.8288 95.9882 36.7742 95.9882 36.6818V34.0413C95.9882 33.949 96.0426 33.8944 96.1348 33.8944H96.7215C96.8137 33.8944 96.8682 33.949 96.8682 34.0413V34.1631C97.0065 33.9574 97.2537 33.8146 97.6308 33.8146C98.1798 33.8146 98.5695 34.2386 98.5695 34.9733Z" fill="white"/>
<path d="M101 34.0455V34.5955C101 34.6878 100.945 34.7424 100.853 34.7424H100.531V36.686C100.531 36.7784 100.476 36.833 100.384 36.833H99.7973C99.7051 36.833 99.6506 36.7784 99.6506 36.686V34.7424H99.3279C99.2358 34.7424 99.1813 34.6878 99.1813 34.5955V34.0455C99.1813 33.9532 99.2316 33.8986 99.3279 33.8986H99.6506V33.1052C99.6506 33.0128 99.7051 32.9583 99.7973 32.9583H100.384C100.476 32.9583 100.531 33.0128 100.531 33.1052V33.8986H100.853C100.945 33.8986 101 33.949 101 34.0455Z" fill="white"/>
</svg>
